REM DIRINDEX 1\2\6,1\2\7,1\2\8,1\2\9,1\3\10,1\3\11,1\4\12,1\4\13,1\4\14,1\5\15,1\5\16,1\5\17
REM DIRNAME folder01,folder02,folder03,folder04,folder05,folder06,folder07,folder08,folder09,folder10,folder11,folder12,folder13,folder14,folder15,folder16,folder17
TITLE ""
FILE "1900_2_sec07_0648_0665.mp3" MP3
  TRACK 01 AUDIO
    TITLE "0:"
    INDEX 01 00:00:00
  TRACK 02 AUDIO
    TITLE "13:cjc020_3408"
    INDEX 01 00:00:17
  TRACK 03 AUDIO
    TITLE "0:"
    INDEX 01 00:01:60
  TRACK 04 AUDIO
    TITLE "14:cjc020_3409"
    INDEX 01 00:01:66
  TRACK 05 AUDIO
    TITLE "0:"
    INDEX 01 00:04:07
  TRACK 06 AUDIO
    TITLE "13:cjc020_3410"
    INDEX 01 00:04:60
  TRACK 07 AUDIO
    TITLE "0:"
    INDEX 01 00:06:06
  TRACK 08 AUDIO
    TITLE "14:cjc020_3411"
    INDEX 01 00:06:08
  TRACK 09 AUDIO
    TITLE "0:"
    INDEX 01 00:08:66
  TRACK 10 AUDIO
    TITLE "13:cjc020_3412"
    INDEX 01 00:09:45
  TRACK 11 AUDIO
    TITLE "0:"
    INDEX 01 00:10:53
  TRACK 12 AUDIO
    TITLE "14:cjc020_3413"
    INDEX 01 00:10:57
  TRACK 13 AUDIO
    TITLE "0:"
    INDEX 01 00:13:51
  TRACK 14 AUDIO
    TITLE "13:cjc020_3414"
    INDEX 01 00:14:31
  TRACK 15 AUDIO
    TITLE "0:"
    INDEX 01 00:15:42
  TRACK 16 AUDIO
    TITLE "14:cjc020_3415"
    INDEX 01 00:15:44
  TRACK 17 AUDIO
    TITLE "0:"
    INDEX 01 00:16:63
  TRACK 18 AUDIO
    TITLE "13:cjc020_3416"
    INDEX 01 00:17:43
  TRACK 19 AUDIO
    TITLE "0:"
    INDEX 01 00:18:54
  TRACK 20 AUDIO
    TITLE "14:cjc020_3417"
    INDEX 01 00:18:56
  TRACK 21 AUDIO
    TITLE "0:"
    INDEX 01 00:22:23
  TRACK 22 AUDIO
    TITLE "13:cjc020_3418"
    INDEX 01 00:23:03
  TRACK 23 AUDIO
    TITLE "0:"
    INDEX 01 00:24:24
  TRACK 24 AUDIO
    TITLE "14:cjc020_3419"
    INDEX 01 00:24:25
  TRACK 25 AUDIO
    TITLE "0:"
    INDEX 01 00:26:58
  TRACK 26 AUDIO
    TITLE "13:cjc020_3420"
    INDEX 01 00:27:38
  TRACK 27 AUDIO
    TITLE "0:"
    INDEX 01 00:28:49
  TRACK 28 AUDIO
    TITLE "14:cjc020_3421"
    INDEX 01 00:28:55
  TRACK 29 AUDIO
    TITLE "0:"
    INDEX 01 00:33:34
  TRACK 30 AUDIO
    TITLE "13:cjc020_3422"
    INDEX 01 00:34:14
  TRACK 31 AUDIO
    TITLE "0:"
    INDEX 01 00:35:27
  TRACK 32 AUDIO
    TITLE "14:cjc020_3423"
    INDEX 01 00:35:31
  TRACK 33 AUDIO
    TITLE "0:"
    INDEX 01 00:38:04
  TRACK 34 AUDIO
    TITLE "13:cjc020_3424"
    INDEX 01 00:38:57
  TRACK 35 AUDIO
    TITLE "0:"
    INDEX 01 00:39:64
  TRACK 36 AUDIO
    TITLE "14:cjc020_3425"
    INDEX 01 00:39:68
  TRACK 37 AUDIO
    TITLE "0:"
    INDEX 01 00:41:02
  TRACK 38 AUDIO
    TITLE "13:cjc020_3426"
    INDEX 01 00:41:55
  TRACK 39 AUDIO
    TITLE "0:"
    INDEX 01 00:42:51
  TRACK 40 AUDIO
    TITLE "14:cjc020_3427"
    INDEX 01 00:42:61
  TRACK 41 AUDIO
    TITLE "0:"
    INDEX 01 00:44:65
  TRACK 42 AUDIO
    TITLE "13:cjc020_3428"
    INDEX 01 00:45:41
  TRACK 43 AUDIO
    TITLE "0:"
    INDEX 01 00:46:45
  TRACK 44 AUDIO
    TITLE "14:cjc020_3429"
    INDEX 01 00:46:49
  TRACK 45 AUDIO
    TITLE "0:"
    INDEX 01 00:48:63
  TRACK 46 AUDIO
    TITLE "13:cjc020_3430"
    INDEX 01 00:49:41
  TRACK 47 AUDIO
    TITLE "0:"
    INDEX 01 00:50:44
  TRACK 48 AUDIO
    TITLE "14:cjc020_3431"
    INDEX 01 00:50:46
  TRACK 49 AUDIO
    TITLE "0:"
    INDEX 01 00:53:00
  TRACK 50 AUDIO
    TITLE "13:cjc020_3432"
    INDEX 01 00:53:57
  TRACK 51 AUDIO
    TITLE "0:"
    INDEX 01 00:54:62
  TRACK 52 AUDIO
    TITLE "14:cjc020_3433"
    INDEX 01 00:54:68
  TRACK 53 AUDIO
    TITLE "0:"
    INDEX 01 00:57:72
  TRACK 54 AUDIO
    TITLE "13:cjc020_3434"
    INDEX 01 00:58:58
  TRACK 55 AUDIO
    TITLE "0:"
    INDEX 01 00:59:61
  TRACK 56 AUDIO
    TITLE "14:cjc020_3435"
    INDEX 01 00:59:65
  TRACK 57 AUDIO
    TITLE "0:"
    INDEX 01 01:03:08
  TRACK 58 AUDIO
    TITLE "13:cjc020_3436"
    INDEX 01 01:03:61
  TRACK 59 AUDIO
    TITLE "0:"
    INDEX 01 01:04:74
  TRACK 60 AUDIO
    TITLE "14:cjc020_3437"
    INDEX 01 01:05:01
  TRACK 61 AUDIO
    TITLE "0:"
    INDEX 01 01:09:16
  TRACK 62 AUDIO
    TITLE "13:cjc020_3438"
    INDEX 01 01:09:69
  TRACK 63 AUDIO
    TITLE "0:"
    INDEX 01 01:11:15
  TRACK 64 AUDIO
    TITLE "14:cjc020_3439"
    INDEX 01 01:11:19
  TRACK 65 AUDIO
    TITLE "0:"
    INDEX 01 01:14:27
  TRACK 66 AUDIO
    TITLE "13:cjc020_3440"
    INDEX 01 01:15:05
  TRACK 67 AUDIO
    TITLE "0:"
    INDEX 01 01:16:07
  TRACK 68 AUDIO
    TITLE "14:cjc020_3441"
    INDEX 01 01:16:12
  TRACK 69 AUDIO
    TITLE "0:"
    INDEX 01 01:20:44
  TRACK 70 AUDIO
    TITLE "13:cjc020_3442"
    INDEX 01 01:21:29
  TRACK 71 AUDIO
    TITLE "0:"
    INDEX 01 01:22:35
  TRACK 72 AUDIO
    TITLE "14:cjc020_3443"
    INDEX 01 01:22:41
  TRACK 73 AUDIO
    TITLE "0:"
    INDEX 01 01:23:48
